<svg width="20" height="22" viewBox="0 0 20 22" fill="none" xmlns="http://www.w3.org/2000/svg">
<path d="M16.625 16.3594V3.89062C16.625 3.39707 16.2279 3 15.7344 3H3.5625C1.5957 3 0 4.5957 0 6.5625V18.4375C0 20.4043 1.5957 22 3.5625 22H15.7344C16.2279 22 16.625 21.6029 16.625 21.1094V20.5156C16.625 20.2373 16.4951 19.985 16.2947 19.8217C16.1389 19.2502 16.1389 17.6211 16.2947 17.0496C16.4951 16.89 16.625 16.6377 16.625 16.3594ZM14.1535 19.625H3.5625C2.90566 19.625 2.375 19.0943 2.375 18.4375C2.375 17.7844 2.90938 17.25 3.5625 17.25H14.1535C14.083 17.8846 14.083 18.9904 14.1535 19.625Z" fill="url(#paint0_linear_158_171)"/>
<circle cx="15.5" cy="4.5" r="4.5" fill="white"/>
<path d="M15.5 7C15.2239 7 15 6.77614 15 6.5L15 2.5C15 2.22386 15.2239 2 15.5 2V2C15.7761 2 16 2.22386 16 2.5L16 6.5C16 6.77614 15.7761 7 15.5 7V7Z" fill="#6937C1"/>
<path d="M13 4.5C13 4.77614 13.2239 5 13.5 5L17.5 5C17.7761 5 18 4.77614 18 4.5V4.5C18 4.22386 17.7761 4 17.5 4L13.5 4C13.2239 4 13 4.22386 13 4.5V4.5Z" fill="#6937C1"/>
<defs>
<linearGradient id="paint0_linear_158_171" x1="-0.1875" y1="21" x2="18.8125" y2="0.999999" gradientUnits="userSpaceOnUse">
<stop stop-color="#9A63CC"/>
<stop offset="0.515625" stop-color="#6B40B6"/>
<stop offset="1" stop-color="#6525D4"/>
</linearGradient>
</defs>
</svg>
