<svg xmlns="http://www.w3.org/2000/svg" viewBox="0 0 244.29 225.74"><defs><style>.cls-1{fill:#510282;}</style></defs><title>fichier2Fichier 1</title><g id="Calque_2" data-name="Calque 2"><g id="Calque_1-2" data-name="Calque 1"><g id="I8YnXN"><path class="cls-1" d="M39.2,134.41C69,143,98.81,151.46,128.55,160.22c6.26,1.85,10.69.59,15-4.37q48.26-56,96.8-111.87c7.13-8.23,4.46-16-6.26-18.43C197,17.27,160,9.05,123,.58c-6.54-1.5-11.23-.15-15.77,5C76.75,39.8,46,73.77,15.56,108.05,3,122.28-2,139.42.7,158.08c2.25,15.83,11,28.74,26.2,33.69,36.91,12,74.33,22.42,111.55,33.49a9.21,9.21,0,0,0,10.19-3c2.21-2.5,4.28-5.12,6.41-7.68q42.36-51.08,84.74-102.13c.16-6.18-18.71-10-18.79-7Q180.65,154,140.45,202.59c-1.59,1.93-2.95,2.53-5.51,1.76Q84.14,189.19,33.26,174.26c-5.34-1.58-9.44-4.84-11.43-9.92-1.77-4.51-2.57-9.39-3.79-14.11C18.83,134.83,24.77,130.26,39.2,134.41Z"/></g></g></g></svg>