<svg xmlns="http://www.w3.org/2000/svg" xmlns:xlink="http://www.w3.org/1999/xlink" viewBox="0 0 232.79 231"><defs><style>.cls-1{fill:none;}.cls-2{fill:#fdc314;}.cls-3{clip-path:url(#clip-path);}</style><clipPath id="clip-path"><polygon class="cls-1" points="143.89 211.5 143.89 172.5 177.89 137.5 213.89 143.5 240.89 186.5 240.89 234.5 143.89 234.5 143.89 211.5"/></clipPath></defs><title>fichier2Fichier 6</title><g id="Calque_2" data-name="Calque 2"><g id="Calque_1-2" data-name="Calque 1"><path class="cls-2" d="M198,99A99,99,0,1,1,99,0,99,99,0,0,1,198,99ZM99,31.14A67.86,67.86,0,1,0,166.86,99,67.86,67.86,0,0,0,99,31.14Z"/><g class="cls-3"><path class="cls-2" d="M101.72,21.85h13.94c2.27.39,4.53.77,6.79,1.17C178,32.89,208.63,90.41,185.74,142c-1.19,2.69-1,4.22,1.09,6.3,11.28,11.05,22.27,22.39,33.59,33.38,5.76,5.6,10.77,11.48,12.37,19.61v7.44q-4.31,18-22.31,22.31H203c-7.87-1.69-13.78-6.34-19.28-12-11-11.35-22.33-22.31-33.36-33.6-2.32-2.37-4-2.6-7.06-1.25C97,204.63,44.52,181.66,28.19,133.64c-2.16-6.37-3.07-13.17-4.56-19.77V99.93c.27-1.18.62-2.34.8-3.53C29.67,62,48.73,38.79,81.11,26.62,87.65,24.16,94.83,23.39,101.72,21.85Zm-58.54,84.6c-.26,35.89,29.34,65.75,65.29,65.87,35.66.12,65.22-29.23,65.63-65.16.41-35.51-29.1-65.4-64.92-65.76S43.45,70.4,43.18,106.45Zm170.61,89.79c-.8-1.94-1-3.5-1.88-4.4-6.55-6.74-13.11-13.5-20-19.93-2.55-2.39-5.83-1.9-8.34.61s-3.06,5.78-.67,8.33c6.43,6.86,13.06,13.55,20,19.87,1.34,1.22,4.78,1.16,6.72.38C211.44,200.38,212.48,197.88,213.79,196.24Z"/></g></g></g></svg>