<svg xmlns="http://www.w3.org/2000/svg" viewBox="0 0 226 242.26"><defs><style>.cls-1{fill:#fdc314;}.cls-2{fill:#fff;}</style></defs><title>fichier2Fichier 2</title><g id="Calque_2" data-name="Calque 2"><g id="Calque_1-2" data-name="Calque 1"><circle class="cls-1" cx="113" cy="113" r="113"/><path class="cls-1" d="M93.07,224.25l15.47,16.11a6.19,6.19,0,0,0,8.92,0l15.47-16.11Z"/><path class="cls-2" d="M125.9,120c0,3.49,0,6.78-1.55,9.84a13.12,13.12,0,0,1-14.44,6.5c-5.81-1.18-9.89-5.41-10.16-11.17s-.21-11.57,0-17.34c.13-4,2.53-6.76,6.47-7.83,3.61-1,7.34-1.57,10.9-2.71,7.17-2.3,10.51-9.41,7.69-15.9-2.11-4.86-7.58-7.5-13.58-6.9-4.85.49-8.06,3.28-11,6.79a57.44,57.44,0,0,1-4.79,5.42c-3.64,3.43-8,3.9-12.53,2.21a11.58,11.58,0,0,1-7.79-10.12c-.9-8.28,2.36-15,8.39-20.48C92.69,50,103.63,46.59,115.83,47c10.36.37,19.78,3.46,27.52,10.51,9.2,8.39,12.49,19.1,11.49,31.32-.5,6.12-1.9,12-5.5,17-5,7.11-12.19,11-20.42,13.29C128,119.44,127,119.68,125.9,120Z"/><path class="cls-2" d="M128.39,163.43a13.39,13.39,0,1,1-26.78.12,13.39,13.39,0,1,1,26.78-.12Z"/></g></g></svg>