<svg width="21" height="21" viewBox="0 0 21 21" fill="none" xmlns="http://www.w3.org/2000/svg">
<path d="M7.78679 1.14217C8.14011 0.78062 8.56214 0.49333 9.02808 0.297185C9.49401 0.101041 9.99446 0 10.5 0C11.0055 0 11.506 0.101041 11.9719 0.297185C12.4379 0.49333 12.8599 0.78062 13.2132 1.14217L14.0297 1.97958L15.1979 1.96514C15.7036 1.95916 16.2054 2.05434 16.6738 2.24509C17.1421 2.43585 17.5676 2.71832 17.9252 3.0759C18.2828 3.43348 18.5653 3.85895 18.7561 4.32729C18.9468 4.79563 19.042 5.29738 19.036 5.80304L19.0229 6.97121L19.8578 7.78762C20.2193 8.14091 20.5066 8.56292 20.7028 9.02882C20.899 9.49473 21 9.99514 21 10.5007C21 11.0062 20.899 11.5066 20.7028 11.9725C20.5066 12.4384 20.2193 12.8604 19.8578 13.2137L19.0216 14.0301L19.036 15.1983C19.042 15.7039 18.9468 16.2057 18.7561 16.674C18.5653 17.1424 18.2828 17.5678 17.9252 17.9254C17.5676 18.283 17.1421 18.5655 16.6738 18.7562C16.2054 18.947 15.7036 19.0422 15.1979 19.0362L14.0297 19.023L13.2132 19.8578C12.8599 20.2194 12.4379 20.5067 11.9719 20.7028C11.506 20.899 11.0055 21 10.5 21C9.99446 21 9.49401 20.899 9.02808 20.7028C8.56214 20.5067 8.14011 20.2194 7.78679 19.8578L6.97033 19.0217L5.80209 19.0362C5.2964 19.0422 4.79461 18.947 4.32625 18.7562C3.85788 18.5655 3.43238 18.283 3.07478 17.9254C2.71718 17.5678 2.43469 17.1424 2.24392 16.674C2.05316 16.2057 1.95797 15.7039 1.96395 15.1983L1.97708 14.0301L1.14225 13.2137C0.780669 12.8604 0.49336 12.4384 0.297204 11.9725C0.101047 11.5066 0 11.0062 0 10.5007C0 9.99514 0.101047 9.49473 0.297204 9.02882C0.49336 8.56292 0.780669 8.14091 1.14225 7.78762L1.97839 6.97121L1.96395 5.80304C1.95797 5.29738 2.05316 4.79563 2.24392 4.32729C2.43469 3.85895 2.71718 3.43348 3.07478 3.0759C3.43238 2.71832 3.85788 2.43585 4.32625 2.24509C4.79461 2.05434 5.2964 1.95916 5.80209 1.96514L6.97033 1.97827L7.78679 1.14349V1.14217ZM9.18999 14.4383C9.18999 14.6107 9.22395 14.7814 9.28991 14.9406C9.35588 15.0998 9.45256 15.2445 9.57445 15.3664C9.69634 15.4883 9.84105 15.585 10.0003 15.6509C10.1596 15.7169 10.3302 15.7509 10.5026 15.7509C10.675 15.7509 10.8457 15.7169 11.0049 15.6509C11.1642 15.585 11.3089 15.4883 11.4308 15.3664C11.5527 15.2445 11.6494 15.0998 11.7153 14.9406C11.7813 14.7814 11.8153 14.6107 11.8153 14.4383C11.8153 14.0902 11.677 13.7563 11.4308 13.5102C11.1846 13.264 10.8508 13.1258 10.5026 13.1258C10.1545 13.1258 9.82062 13.264 9.57445 13.5102C9.32829 13.7563 9.18999 14.0902 9.18999 14.4383ZM11.2928 11.7778C11.3453 11.0769 11.5527 10.708 12.4033 10.124C13.288 9.50049 13.7816 8.69328 13.7816 7.51723C13.7816 5.7781 12.574 4.59418 10.8124 4.59418C9.47352 4.59418 8.46017 5.23996 8.05588 6.28737C7.93336 6.57344 7.87168 6.88185 7.87474 7.19303C7.87474 7.70886 8.1412 8.03306 8.59012 8.03306C8.94716 8.03306 9.18737 7.84012 9.33044 7.36366C9.53784 6.58663 10.0196 6.16268 10.7402 6.16268C11.5409 6.16268 12.0922 6.74808 12.0922 7.58548C12.0922 8.32445 11.8192 8.74709 11.0132 9.32461C10.2007 9.89295 9.79774 10.5243 9.79774 11.4772V11.6229C9.79774 12.1847 10.0708 12.6007 10.5656 12.6007C11.0067 12.6007 11.2272 12.2857 11.2928 11.7778Z" fill="url(#paint0_linear_158_184)"/>
<defs>
<linearGradient id="paint0_linear_158_184" x1="19" y1="2" x2="2" y2="21" gradientUnits="userSpaceOnUse">
<stop stop-color="#6525D4"/>
<stop offset="0.343647" stop-color="#6B40B6"/>
<stop offset="1" stop-color="#9660CA"/>
</linearGradient>
</defs>
</svg>
