<svg xmlns="http://www.w3.org/2000/svg" viewBox="0 0 238.68 190.28"><defs><style>.cls-1{fill:#58b472;}.cls-2{fill:#fdc314;}</style></defs><title>fichier2Fichier 4</title><g id="Calque_2" data-name="Calque 2"><g id="Calque_1-2" data-name="Calque 1"><g id="hcOxyZ.tif"><path class="cls-1" d="M1.81,65.86a3.37,3.37,0,0,1,0-6c7-3.77,13.22-7.1,19.45-10.34C52.49,33.31,83.75,17.05,115.09,1c2.19-1.12,5.51-1.43,7.62-.35C160.84,20.26,198.86,40.12,236.9,60l0,0a3.36,3.36,0,0,1-.08,5.93c-6.68,3.48-12.81,6.68-18.94,9.86C186.45,92.1,155,108.5,123.46,124.59a10,10,0,0,1-8.24.06C80,106.6,44.87,88.25,9.72,70Z"/><path class="cls-1" d="M191.44,106.68c5.71,11.53,8.7,23,8.29,35.48a7.07,7.07,0,0,1-3.29,5q-37.16,17.79-74.51,35c-1.84.85-4.59.43-6.54-.47-24.1-11.16-48.09-22.64-72.22-33.7-3.73-1.71-4.67-3.93-4.54-8.11a80.42,80.42,0,0,1,8.4-33.4l36.85,18.92C94.57,131,105.2,136.64,116,141.83a8.71,8.71,0,0,0,7-.27c19.31-9.74,38.49-19.8,57.72-29.72C184,110.14,187.4,108.63,191.44,106.68Z"/><path class="cls-2" d="M12.21,83.37c7.16,1.11,10.08,4.23,9.58,11.69-.56,8.26.4,16.65-.23,24.9-1.72,22.61,3,44.05,8.24,65.45a42.75,42.75,0,0,1,.54,4.87h-28C15.86,155.68,11.24,119.53,12.21,83.37Z"/></g></g></g></svg>