<svg width="253" height="256" viewBox="0 0 253 256" fill="none" xmlns="http://www.w3.org/2000/svg">
<mask id="mask0_160_222" style="mask-type:alpha" maskUnits="userSpaceOnUse" x="0" y="0" width="253" height="256">
<rect width="253" height="256" fill="#C4C4C4"/>
</mask>
<g mask="url(#mask0_160_222)">
<rect width="253" height="256" fill="#6E42B8"/>
<path d="M32 32C32 27.7977 31.1723 23.6365 29.5641 19.7541C27.956 15.8717 25.5989 12.3441 22.6274 9.37258C19.6559 6.40111 16.1283 4.04401 12.2459 2.43585C8.36345 0.827704 4.2023 -1.83688e-07 -1.39876e-06 0L0 32H32Z" fill="#8655C3"/>
<path d="M64 32C64 27.7977 63.1723 23.6365 61.5641 19.7541C59.956 15.8717 57.5989 12.3441 54.6274 9.37258C51.6559 6.40111 48.1283 4.04401 44.2459 2.43585C40.3634 0.827704 36.2023 -1.83688e-07 32 0L32 32H64Z" fill="#642FBD"/>
<path d="M127 64C127 55.5954 125.37 47.2731 122.204 39.5083C119.038 31.7434 114.398 24.6881 108.548 18.7452C102.698 12.8022 95.7526 8.08801 88.1091 4.87171C80.4655 1.65541 72.2733 -3.67377e-07 64 0L64 64H127Z" fill="#642FBD"/>
<path d="M252 192C252 183.595 250.396 175.273 247.281 167.508C244.165 159.743 239.598 152.688 233.841 146.745C228.083 140.802 221.249 136.088 213.726 132.872C206.204 129.655 198.142 128 190 128L190 192H252Z" fill="#642FBD"/>
<path d="M0 256C0 247.595 1.60368 239.273 4.71947 231.508C7.83526 223.743 12.4021 216.688 18.1594 210.745C23.9166 204.802 30.7514 200.088 38.2736 196.872C45.7958 193.655 53.858 192 62 192L62 256H0Z" fill="#642FBD"/>
<path d="M253 64C253 55.5954 251.37 47.2731 248.204 39.5083C245.038 31.7434 240.398 24.6881 234.548 18.7452C228.698 12.8022 221.753 8.08801 214.109 4.87171C206.466 1.65541 198.273 -3.67377e-07 190 0L190 64H253Z" fill="#642FBD"/>
<path d="M127 64C127 55.5954 128.63 47.2731 131.796 39.5083C134.962 31.7434 139.602 24.6881 145.452 18.7452C151.302 12.8022 158.247 8.08801 165.891 4.87171C173.534 1.65541 181.727 -3.67377e-07 190 0L190 64H127Z" fill="#8655C3"/>
<path d="M190 128C190 119.595 191.63 111.273 194.796 103.508C197.962 95.7434 202.602 88.6881 208.452 82.7452C214.302 76.8022 221.247 72.088 228.891 68.8717C236.534 65.6554 244.727 64 253 64L253 128H190Z" fill="#8655C3"/>
<path d="M63 128C63 119.595 61.3705 111.273 58.2044 103.508C55.0384 95.7434 50.3978 88.6881 44.5477 82.7452C38.6976 76.8022 31.7526 72.088 24.1091 68.8717C16.4655 65.6554 8.27328 64 -2.75382e-06 64L0 128H63Z" fill="#8655C3"/>
<path d="M63 128C63 136.405 64.6295 144.727 67.7956 152.492C70.9616 160.257 75.6022 167.312 81.4523 173.255C87.3024 179.198 94.2474 183.912 101.891 187.128C109.534 190.345 117.727 192 126 192L126 128H63Z" fill="#8655C3"/>
<path d="M63 192C63 200.405 64.6295 208.727 67.7956 216.492C70.9616 224.257 75.6022 231.312 81.4523 237.255C87.3024 243.198 94.2474 247.912 101.891 251.128C109.534 254.345 117.727 256 126 256L126 192H63Z" fill="#8655C3"/>
<path d="M189 192C189 200.405 187.37 208.727 184.204 216.492C181.038 224.257 176.398 231.312 170.548 237.255C164.698 243.198 157.753 247.912 150.109 251.128C142.466 254.345 134.273 256 126 256L126 192H189Z" fill="#8655C3"/>
<path d="M32 32C32 36.2023 31.1723 40.3635 29.5641 44.2459C27.956 48.1283 25.5989 51.6559 22.6274 54.6274C19.6559 57.5989 16.1283 59.956 12.2459 61.5641C8.36345 63.1723 4.2023 64 -1.39876e-06 64L0 32H32Z" fill="#9365CB"/>
<path d="M159 96C159 91.7977 158.172 87.6365 156.564 83.7541C154.956 79.8717 152.599 76.3441 149.627 73.3726C146.656 70.4011 143.128 68.044 139.246 66.4359C135.363 64.8277 131.202 64 127 64L127 96H159Z" fill="#9365CB"/>
<path d="M253 256C253 251.798 252.185 247.637 250.602 243.754C249.019 239.872 246.699 236.344 243.774 233.373C240.849 230.401 237.376 228.044 233.555 226.436C229.733 224.828 225.637 224 221.5 224L221.5 256H253Z" fill="#9365CB"/>
<path d="M159 96C159 100.202 158.172 104.363 156.564 108.246C154.956 112.128 152.599 115.656 149.627 118.627C146.656 121.599 143.128 123.956 139.246 125.564C135.363 127.172 131.202 128 127 128L127 96H159Z" fill="#642FBD"/>
<path d="M159 96C159 100.202 159.828 104.363 161.436 108.246C163.044 112.128 165.401 115.656 168.373 118.627C171.344 121.599 174.872 123.956 178.754 125.564C182.637 127.172 186.798 128 191 128L191 96H159Z" fill="#642FBD"/>
<path d="M190 192C190 196.202 190.828 200.363 192.436 204.246C194.044 208.128 196.401 211.656 199.373 214.627C202.344 217.599 205.872 219.956 209.754 221.564C213.637 223.172 217.798 224 222 224L222 192H190Z" fill="#642FBD"/>
<ellipse cx="95.5" cy="96" rx="31.5" ry="32" fill="#7449A9"/>
<ellipse cx="31.5" cy="160" rx="31.5" ry="32" fill="#7449A9"/>
<ellipse cx="158.5" cy="160" rx="31.5" ry="32" fill="#7449A9"/>
<circle cx="127" cy="16" r="16" fill="#7449A9"/>
<circle cx="174" cy="80" r="16" fill="#7449A9"/>
</g>
</svg>
