<svg xmlns="http://www.w3.org/2000/svg" xmlns:xlink="http://www.w3.org/1999/xlink" viewBox="0 0 379.24 272.03"><defs><style>.cls-1{fill:#fff;}.cls-2{fill:#e8e8e8;}.cls-3{fill:url(#Dégradé_sans_nom_2);}.cls-4{fill:url(#Dégradé_sans_nom_2-2);}</style><linearGradient id="Dégradé_sans_nom_2" x1="-230.96" y1="136.02" x2="302.38" y2="136.02" gradientUnits="userSpaceOnUse"><stop offset="0" stop-color="#93388f"/><stop offset="1" stop-color="#662d91"/></linearGradient><linearGradient id="Dégradé_sans_nom_2-2" x1="-2.12" y1="205.27" x2="21.79" y2="205.27" xlink:href="#Dégradé_sans_nom_2"/></defs><g id="Calque_2" data-name="Calque 2"><g id="Calque_1-2" data-name="Calque 1"><polygon class="cls-1" points="16.74 83.8 16.74 132.87 25.24 143.72 25.24 221.04 199.74 257.93 264.25 227.91 202.74 61.93 16.74 83.8"/><polygon class="cls-2" points="190.26 76.41 191.01 183.7 338.24 120.43 336.84 36.14 190.26 76.41"/><path class="cls-3" d="M351.19,106.39c-2.63.55-5,.64-5.95,1-45.11,18.51-84.11,31-129,50-8.37,3.54-21.35,7.92-30.29,6.16C137.28,154,97.13,145.73,48.24,137.43c-19.63-3.33-26-6-28-28-1.54-16.91,4.75-27.06,21-24,46.95,7,99.21,10.41,147.77,19.38a17.43,17.43,0,0,0,9.74-1q67.91-27.88,135.67-56.1C345.88,43,345.91,43,345.21,30.62a6.31,6.31,0,0,0-.35-1.24,10.07,10.07,0,0,0-1.65-.61q-74.59-14-149.2-28a36.17,36.17,0,0,0-22.43,2.47c-2.72,1.25-5.54,2.27-8.31,3.42q-69.86,29-139.73,58A35.68,35.68,0,0,0,3.24,85.44C.12,93.38-.49,101.6.33,110c1.87,19.24,16.32,45.2,45,50.25,51.31,9,102.34,19.66,153.69,28.45,18.66,3.19,31.77,10.58,33.23,29.73,1.28,16.87-10.83,29.88-34.13,25.12-38-7.75-76.19-14.51-114.31-21.67-11.37-2.14-63.57-9.23-75.56-11.45,0,2.89-.93,16.25-1.25,18.51-.71,4.93,1.21,6.75,6.18,7.65,45.53,8.33,135,24.9,180.48,33.53,10.89,2.06,21.36,3.43,32.27-1.17,43.72-18.43,87.6-36.49,131.45-54.61,8.6-3.55,21.12-11.64,21.87-20.91L375.7,128A23.59,23.59,0,0,0,363,108.1,17.71,17.71,0,0,0,351.19,106.39Z"/><path class="cls-4" d="M25.24,197.43c-9,0-17,8-17,13l17,2.68Z"/></g></g></svg>