<svg width="26" height="34" viewBox="0 0 26 34" fill="none" xmlns="http://www.w3.org/2000/svg">
<path d="M26 14.3144L7.65266 26.599L12.0124 34L26 14.3144Z" fill="white"/>
<path d="M20.2389 0L12.0124 34L2.79694 18.3827L20.2389 0Z" fill="white"/>
<path d="M13.2927 7.32115L12.0124 34L20.2389 0L13.2927 7.32115Z" fill="#EAEAEA"/>
<path d="M0 5.36827L13.6589 16.1048L12.0124 34L0 5.36827Z" fill="#FEFEFE"/>
<path d="M19.4142 17C20.005 17 20.484 16.5265 20.484 15.9423C20.484 15.3582 20.005 14.8846 19.4142 14.8846C18.8234 14.8846 18.3445 15.3582 18.3445 15.9423C18.3445 16.5265 18.8234 17 19.4142 17Z" fill="white"/>
<path d="M13.0822 3.33557C13.9007 3.33557 14.5643 2.6795 14.5643 1.8702C14.5643 1.0609 13.9007 0.40483 13.0822 0.40483C12.2636 0.40483 11.6001 1.0609 11.6001 1.8702C11.6001 2.6795 12.2636 3.33557 13.0822 3.33557Z" fill="white"/>
<path d="M7.73339 9.08016C8.36879 9.08016 8.88389 8.57088 8.88389 7.94265C8.88389 7.31441 8.36879 6.80513 7.73339 6.80513C7.09799 6.80513 6.5829 7.31441 6.5829 7.94265C6.5829 8.57088 7.09799 9.08016 7.73339 9.08016Z" fill="#FFFEFA"/>
<path d="M7.73339 11.4464L12.0124 34L13.6589 16.1048L7.73339 11.4464Z" fill="#DFDFDF"/>
<path d="M19.2441 18.836L12.0124 34L26 14.3144L19.2441 18.836Z" fill="#F0F0F0"/>
</svg>
