<svg width="170" height="225" viewBox="0 0 170 225" fill="none" xmlns="http://www.w3.org/2000/svg">
<path d="M170 94.7279L50.0366 176.023L78.5428 225L170 94.7279Z" fill="#6EC685"/>
<path d="M132.331 0L78.5428 225L18.2877 121.65L132.331 0Z" fill="#7444CB"/>
<path d="M86.9136 48.4488L78.5427 225L132.331 0L86.9136 48.4488Z" fill="#672ECC"/>
<path d="M0 35.5253L89.308 106.576L78.5428 225L0 35.5253Z" fill="#FAD04C"/>
<path d="M126.939 112.5C130.802 112.5 133.934 109.366 133.934 105.501C133.934 101.635 130.802 98.5012 126.939 98.5012C123.076 98.5012 119.945 101.635 119.945 105.501C119.945 109.366 123.076 112.5 126.939 112.5Z" fill="#6EC685"/>
<path d="M85.5373 22.0737C90.8892 22.0737 95.2278 17.732 95.2278 12.3764C95.2278 7.02071 90.8892 2.67908 85.5373 2.67908C80.1853 2.67908 75.8467 7.02071 75.8467 12.3764C75.8467 17.732 80.1853 22.0737 85.5373 22.0737Z" fill="#662BD0"/>
<path d="M50.5644 60.0893C54.719 60.0893 58.0869 56.719 58.0869 52.5616C58.0869 48.4042 54.719 45.0339 50.5644 45.0339C46.4099 45.0339 43.042 48.4042 43.042 52.5616C43.042 56.719 46.4099 60.0893 50.5644 60.0893Z" fill="#FAD04C"/>
<path d="M50.5645 75.7484L78.5427 225L89.3079 106.576L50.5645 75.7484Z" fill="#EEBD33"/>
<path d="M125.827 124.65L78.5427 225L170 94.7279L125.827 124.65Z" fill="#63AE77"/>
</svg>
