<svg xmlns="http://www.w3.org/2000/svg" xmlns:xlink="http://www.w3.org/1999/xlink" viewBox="0 0 78.96 63"><defs><style>.cls-1{fill:none;}.cls-2{clip-path:url(#clip-path);}.cls-3{fill:#5952e2;}.cls-4{fill:#fff;}.cls-5{fill:#e05362;}</style><clipPath id="clip-path" transform="translate(16 17)"><rect class="cls-1" width="53" height="32" rx="6.11"/></clipPath></defs><g id="Calque_2" data-name="Calque 2"><g id="Calque_1-2" data-name="Calque 1"><g class="cls-2"><rect class="cls-3" width="78.96" height="60.89"/><rect class="cls-4" x="22.82" y="-21.58" width="7.46" height="76.08" transform="translate(49.69 63.88) rotate(-135)"/><rect class="cls-5" x="-4.77" y="30.04" width="37.63" height="2.2" transform="translate(-1.91 36.05) rotate(-45)"/><rect class="cls-4" x="21.2" y="-22.57" width="7.46" height="76.08" transform="translate(12.36 39.16) rotate(-45)"/><rect class="cls-5" x="9.71" y="-16.13" width="2.2" height="38.84" transform="translate(16.84 25.61) rotate(-45)"/><rect class="cls-5" x="20.73" y="0.34" width="37.63" height="2.2" transform="translate(26.56 45.39) rotate(-45)"/><rect class="cls-5" x="38.36" y="8.65" width="2.2" height="38.84" transform="translate(7.71 53.12) rotate(-45)"/><rect class="cls-4" x="36.38" y="6.45" width="10.84" height="49.8"/><rect class="cls-4" x="21.03" y="-10.16" width="10.84" height="53.41" transform="translate(25.9 59.99) rotate(-90)"/><rect class="cls-5" x="38.96" y="6.45" width="6.19" height="49.8"/><rect class="cls-5" x="15.74" y="30.45" width="53.41" height="6.19"/></g></g></g></svg>